<svg width="10" height="19" viewBox="0 0 10 19" fill="none" xmlns="http://www.w3.org/2000/svg"><path d="M1.698 18.946a.6.6 0 01-.254-.294.85.85 0 01-.061-.432l2.809-8.041H.54a.427.427 0 01-.234-.062.57.57 0 01-.188-.189.773.773 0 01-.105-.276.87.87 0 01.001-.308l3.8-8.821A.72.72 0 014.005.14.453.453 0 014.34 0h3.778a.43.43 0 01.228.065.572.572 0 01.183.185c.05.08.085.173.104.273a.87.87 0 010 .304L5.742 6.59l3.74-.103c.099 0 .196.036.28.103a.649.649 0 01.194.277.858.858 0 01-.058.679L2.319 18.7a.607.607 0 01-.18.214.442.442 0 01-.236.085.464.464 0 01-.205-.054z" fill="#D50005"/></svg>