<svg width="18" height="36" viewBox="0 0 18 36" fill="none" xmlns="http://www.w3.org/2000/svg"><path d="M3.057 35.897a1.12 1.12 0 01-.458-.555 1.687 1.687 0 01-.11-.82l5.056-15.236H.972a.74.74 0 01-.42-.117 1.053 1.053 0 01-.34-.357 1.514 1.514 0 01-.188-.524 1.736 1.736 0 01.001-.584L6.865.99c.05-.287.172-.543.344-.723A.795.795 0 017.812 0h6.801c.142 0 .281.042.409.125.128.082.24.202.33.351.09.151.154.328.187.517.032.19.033.386.002.576l-5.208 10.917 6.734-.194c.177 0 .351.066.502.194.15.127.272.31.35.526.067.207.094.436.075.662-.018.226-.08.44-.18.623L4.174 35.434a1.136 1.136 0 01-.324.405.769.769 0 01-.424.161.803.803 0 01-.37-.103z" fill="#D0D0D0"/></svg>